<svg width="533" height="420" viewBox="0 0 533 420" fill="none" xmlns="http://www.w3.org/2000/svg">
<g clip-path="url(#clip0_20_69)">
<path d="M493.149 380.948C475.686 394.711 454.41 408.652 433.492 415.226C427.462 417.177 421.24 418.423 414.941 418.939C409.053 419.429 403.127 418.953 397.382 417.529C382.285 413.644 368.283 406.838 354.734 398.888C350.308 396.286 345.932 393.566 341.582 390.785C334.482 386.244 327.452 381.544 320.402 376.956C319.347 376.261 318.298 375.579 317.242 374.904H317.236C315.534 373.799 313.828 372.709 312.118 371.634C311.818 371.442 311.517 371.257 311.21 371.065C307.98 369.039 304.694 367.06 301.352 365.127C300.943 364.895 300.534 364.657 300.124 364.425C293.66 360.714 287.015 357.349 280.217 354.343C275.752 352.397 271.23 350.642 266.662 349.146H266.656C264.91 348.577 263.157 348.041 261.398 347.551C256.123 346.053 250.747 344.964 245.316 344.294C237.832 343.356 230.262 343.419 222.793 344.479C222.287 344.552 221.788 344.625 221.283 344.711C201.069 348.061 182.62 359.354 162.317 362.015C161.658 362.101 161.006 362.181 160.347 362.24C160.065 362.267 159.784 362.3 159.502 362.32C153.602 362.842 147.664 362.691 141.796 361.87C125.401 359.632 109.434 352.688 95.0604 343.936C61.4577 323.474 34.2071 292.023 17.6393 255.601C14.7942 249.359 12.2682 242.966 10.0718 236.45C3.93078 218.379 0.548894 199.429 0.047915 180.28C-1.50652 113.843 34.9747 47.1879 92.2521 17.1403C149.536 -12.9072 224.891 -2.9708 271.089 43.1895C299.114 71.1915 315.33 109.137 336.42 143.037C357.51 176.931 387.486 209.308 426.149 214.247C445.845 216.762 466.455 211.897 485.332 218.225C495.785 221.734 504.702 228.446 511.886 236.999C516.715 242.803 520.757 249.262 523.899 256.197C526.202 261.21 528.07 266.425 529.483 271.78C529.746 272.766 529.989 273.753 530.226 274.739C539.629 314.485 524.603 356.15 493.149 380.948Z" fill="#F2F2F2" fill-opacity="0.08"/>
<path d="M178.578 308.997H118.447C109.438 308.997 102.135 316.554 102.135 325.877V325.877C102.135 335.2 109.438 342.758 118.447 342.758H178.578C187.586 342.758 194.89 335.2 194.89 325.877C194.89 316.554 187.586 308.997 178.578 308.997Z" fill="#15101A"/>
<path d="M160.347 334.152V362.24C154.17 362.859 147.945 362.734 141.796 361.87V334.152H160.347Z" fill="#15101A"/>
<path d="M222.793 344.479C222.287 344.552 221.788 344.625 221.283 344.711C201.069 348.061 182.62 359.354 162.317 362.015C161.658 362.101 161.005 362.181 160.347 362.24C160.065 362.267 159.784 362.3 159.502 362.32C154.545 357.295 149.587 351.946 144.93 346.406C142.403 343.407 139.96 340.348 137.663 337.25C131.701 329.253 126.648 321.032 123.309 312.955C123.648 309.083 121.319 300.126 120.206 293.268L120.2 293.261C119.726 290.382 119.471 287.879 119.707 286.271C121.063 276.99 128.388 278.055 130.64 268.96C132.671 267.215 134.833 265.641 137.107 264.253C137.484 264.021 137.868 263.79 138.265 263.558L162.701 246.082L172.04 255.561L186.254 269.992L201.657 285.622L188.582 299.292C188.582 299.292 199.508 312.327 212.283 329.704C215.711 334.371 219.274 339.355 222.793 344.479Z" fill="#0A0B1A"/>
<path d="M433.492 334.152V415.226C427.462 417.177 421.24 418.423 414.941 418.939V334.152H433.492Z" fill="#15101A"/>
<path d="M457.481 327.532H397.35C388.341 327.532 381.038 335.09 381.038 344.413V344.413C381.038 353.736 388.341 361.294 397.35 361.294H457.481C466.489 361.294 473.792 353.736 473.792 344.413C473.792 335.09 466.489 327.532 457.481 327.532Z" fill="#15101A"/>
<path d="M311.21 371.065C307.98 369.039 304.694 367.06 301.352 365.127C300.943 364.895 300.534 364.657 300.124 364.425L302.325 363.452L308.261 360.81L308.319 360.784L308.383 361.009L311.21 371.065Z" fill="#FFB6B6"/>
<path d="M320.402 376.956C319.347 376.261 318.298 375.579 317.242 374.904H317.236C315.534 373.799 313.828 372.708 312.118 371.634C311.818 371.442 311.517 371.257 311.21 371.065C307.979 369.039 304.694 367.06 301.352 365.127C300.943 364.895 300.534 364.656 300.124 364.425C293.66 360.714 287.015 357.349 280.217 354.343C275.752 352.397 271.23 350.642 266.662 349.146H266.656L263.067 342.93L246.915 314.935L243.365 308.785C243.365 308.785 231.256 312.492 214.119 316.047C207.882 317.344 200.986 318.615 193.751 319.688C186.017 320.826 177.906 321.733 169.846 322.17C166.001 322.382 162.17 322.488 158.396 322.455C148.64 322.389 139.269 321.442 131.062 319.191C128.324 316.53 120.072 312.909 114.161 309.592H114.155C111.673 308.202 109.613 306.872 108.532 305.687C102.302 298.868 107.624 293.553 102.084 286.112C102.009 283.382 102.144 280.651 102.487 277.943C102.545 277.493 102.602 277.036 102.673 276.573L104.419 245.883L117.392 244.109L137.132 241.408L158.517 238.482L160.871 257.56C160.871 257.56 177.522 256.687 198.619 256.978C232.503 257.454 277.844 260.95 283.985 275.95C284.561 277.36 285.136 278.784 285.712 280.207C287.081 283.61 288.437 287.03 289.781 290.468C294.649 302.913 299.293 315.478 303.534 327.354C306.169 334.741 308.651 341.864 310.935 348.531C312.771 353.893 314.472 358.963 316.027 363.63C317.447 367.894 318.733 371.819 319.878 375.341C320.057 375.89 320.229 376.433 320.402 376.956Z" fill="#0A0B1A"/>
<path d="M201.065 191.013L160.09 155L186.749 127.079L205.348 158.605L274.289 172.75C276.362 171.135 278.844 170.18 281.433 170C284.022 169.82 286.605 170.423 288.868 171.737C291.131 173.05 292.976 175.016 294.177 177.396C295.379 179.775 295.886 182.465 295.636 185.137C295.386 187.81 294.39 190.349 292.77 192.446C291.149 194.543 288.974 196.106 286.51 196.946C284.046 197.786 281.398 197.865 278.891 197.175C276.384 196.484 274.125 195.054 272.39 193.058L201.065 191.013Z" fill="#A0616A"/>
<path d="M123.877 107.67C119.142 123.612 164.241 161.635 164.241 161.635C164.742 157.808 190.312 190.811 192.052 187.822C196.996 179.327 202.436 158.329 208.144 155.646C211.408 154.111 192.682 132.778 192.682 132.778C192.682 132.778 183.13 119.7 170.518 103.125C167.037 98.3708 162.449 94.6052 157.183 92.179C151.917 89.7528 146.143 88.7449 140.399 89.2492C140.399 89.2492 128.613 91.7276 123.877 107.67Z" fill="white"/>
<path d="M143.817 72.377C159.123 72.377 171.531 59.5366 171.531 43.6971C171.531 27.8576 159.123 15.0172 143.817 15.0172C128.512 15.0172 116.104 27.8576 116.104 43.6971C116.104 59.5366 128.512 72.377 143.817 72.377Z" fill="#A0616A"/>
<path d="M157.674 91.3325C163.645 95.0058 167.216 101.755 169.267 108.623C173.062 121.338 175.347 134.484 176.071 147.771L178.236 187.549L205.056 272.248C181.812 292.602 94.4421 276.874 94.4421 276.874C94.4421 276.874 91.7601 275.949 94.4421 273.173C97.124 270.398 99.735 272.857 97.053 270.081C94.3711 267.306 96.2199 270.398 97.1139 267.622C98.0079 264.847 97.1139 266.697 96.2199 265.772C95.3259 264.847 103.141 256.52 103.141 256.52L95.9889 207.902L87.049 109.836C97.7769 95.9582 119.352 87.7776 119.352 87.7776L124.927 77.3932L152.801 79.7008L157.674 91.3325Z" fill="white"/>
<path d="M166.663 28.4599C168.817 30.1225 170.413 32.4423 171.226 35.0927C171.538 30.7613 171.558 26.4127 171.285 22.0784C170.958 19.0327 168.886 18.3477 166.487 17.5538C164.32 16.8366 161.87 16.0265 161.211 13.0698C152.499 4.29956 137.334 4.7418 126.955 7.80101C121.245 9.48444 117.958 11.6473 117.664 12.9143L117.604 13.1752L117.372 13.2952C112.97 15.5729 112.113 22.7657 112.169 28.3985C112.276 39.0111 115.817 51.0642 117.812 52.0434C117.918 52.0952 117.944 52.0749 117.99 52.0355C120.994 49.5515 124.658 52.2243 126.268 53.6772C127.218 47.0814 130.276 41.0051 134.955 36.4189C139.633 31.8328 145.661 29.0012 152.077 28.3766C154.172 28.167 156.251 27.8063 158.298 27.2972C159.336 27.0192 160.403 26.8743 161.475 26.8656C163.321 26.8366 165.132 27.393 166.663 28.4599Z" fill="black"/>
<path d="M131.742 234.222L123.265 229.729C122.811 229.394 122.488 228.901 122.356 228.34C122.224 227.78 122.291 227.188 122.545 226.675C122.799 226.161 123.224 225.759 123.741 225.542C124.258 225.326 124.833 225.308 125.361 225.494L133.838 229.987C134.293 230.322 134.615 230.815 134.747 231.376C134.879 231.937 134.812 232.528 134.558 233.042C134.304 233.555 133.879 233.957 133.362 234.174C132.846 234.391 132.271 234.408 131.742 234.222Z" fill="#6C63FF"/>
<path d="M103.211 222.184L89.2648 168.456L126.532 161.156L124.528 198.034L173.494 250.211C176.086 250.101 178.653 250.774 180.882 252.149C183.111 253.523 184.906 255.538 186.047 257.949C187.188 260.361 187.627 263.063 187.309 265.728C186.992 268.393 185.932 270.904 184.259 272.956C182.586 275.009 180.372 276.513 177.887 277.285C175.403 278.058 172.754 278.066 170.265 277.308C167.777 276.55 165.554 275.059 163.87 273.016C162.186 270.974 161.113 268.469 160.78 265.806L103.211 222.184Z" fill="#A0616A"/>
<path d="M85.4513 108.216C72.8014 118.55 89.0375 176.357 89.0375 176.357C91.5513 173.502 94.4724 215.696 97.545 214.259C106.278 210.176 122.283 196.095 128.454 197.243C131.983 197.9 128.285 169.334 128.285 169.334C128.285 169.334 127.605 152.956 126.327 131.9C126.073 125.941 124.365 120.145 121.364 115.052C118.362 109.959 114.165 105.734 109.161 102.772C109.161 102.772 98.1011 97.8811 85.4513 108.216Z" fill="white"/>
<path d="M523.899 256.197L17.6392 255.601C14.7941 249.359 12.2681 242.966 10.0717 236.45L511.886 236.999C516.715 242.803 520.757 249.262 523.899 256.197Z" fill="#110E1A"/>
<path d="M362.653 395.095C360.037 396.405 357.397 397.67 354.734 398.888C350.308 396.286 345.932 393.565 341.582 390.785L357.715 383.45L362.653 395.095Z" fill="#FFB6B6"/>
<path d="M480.279 303.873C477.656 307.514 474.95 311.082 472.161 314.577C469.59 317.801 466.95 320.963 464.242 324.064C463.122 325.348 461.99 326.625 460.832 327.89C458.702 330.253 456.525 332.577 454.301 334.861C450.297 336.165 442.186 338.462 433.492 340.607C427.166 342.162 420.532 343.638 414.941 344.578C411.812 345.16 408.646 345.509 405.468 345.624C401.693 345.658 397.862 345.552 394.017 345.34C389.68 345.101 385.337 344.731 381.044 344.254C369.882 343.043 359.071 341.156 349.745 339.216C346.329 338.515 343.117 337.8 340.162 337.105C334.565 335.801 329.882 334.583 326.492 333.656C322.673 332.623 320.498 331.954 320.498 331.954L310.935 348.531L305.971 357.13L302.325 363.452L301.352 365.127C300.943 364.895 300.534 364.657 300.124 364.425C293.66 360.714 287.015 357.349 280.217 354.343C275.752 352.397 271.23 350.642 266.662 349.146H266.656C264.91 348.577 263.157 348.041 261.398 347.551C261.948 346.022 262.504 344.481 263.067 342.93C264.116 340.037 265.187 337.118 266.279 334.172C268.639 327.791 271.083 321.316 273.597 314.875C275.656 309.586 277.755 304.317 279.878 299.12C280.857 296.724 282.846 294.618 285.629 292.771C286.959 291.904 288.346 291.134 289.781 290.468C297.745 286.714 309.477 284.272 322.405 282.703C323.473 282.577 324.548 282.451 325.629 282.332C336.331 281.167 347.685 280.564 358.304 280.286C363.62 280.147 368.75 280.094 373.522 280.088C375.063 280.088 376.562 280.092 378.019 280.101H378.025C381.959 280.121 385.58 280.18 388.766 280.247C389.386 280.26 389.987 280.28 390.576 280.293H390.582C390.979 280.3 391.369 280.313 391.753 280.319C398.719 280.505 402.992 280.73 402.992 280.73L404.649 267.278L404.988 264.564L405.308 261.983V261.976L405.346 261.652L405.608 261.645L410.214 261.552L448.928 260.771L470.076 260.341L466.724 275.209L461.191 299.742C461.754 303.621 480.471 300.583 480.279 303.873Z" fill="#0A0B1A"/>
<path d="M367.425 392.645C365.845 393.479 364.253 394.3 362.653 395.095C360.037 396.405 357.397 397.67 354.734 398.888C350.307 396.286 345.932 393.565 341.582 390.785C334.482 386.244 327.452 381.544 320.402 376.956C319.347 376.261 318.298 375.579 317.242 374.904H317.236C314.332 370.442 311.37 365.795 308.382 361.009C308.338 360.943 308.299 360.877 308.261 360.81C307.493 359.592 306.73 358.365 305.971 357.13C301.192 349.384 296.388 341.308 291.725 333.06L303.534 327.354L325.488 316.749L329.275 314.922L340.162 337.105L349.872 356.891L352.035 361.294L367.425 392.645Z" fill="#0A0B1A"/>
<path d="M370.734 286.143L426.707 230.283L442.221 184.824L419.338 174.527C407.584 186.179 394.878 222.471 394.878 222.471L356.361 273.182C356.061 273.288 355.761 273.401 355.466 273.536C353.731 274.328 352.223 275.569 351.087 277.14C349.951 278.711 349.226 280.559 348.982 282.505C348.738 284.451 348.983 286.429 349.694 288.248C350.404 290.067 351.556 291.666 353.039 292.89C354.521 294.113 356.283 294.921 358.154 295.234C360.026 295.547 361.944 295.355 363.723 294.677C365.502 293.999 367.082 292.857 368.311 291.362C369.539 289.867 370.374 288.07 370.734 286.143Z" fill="#FFB8B8"/>
<path d="M412.899 179.602L441.925 189.138L442.034 189.119C452.837 187.247 461.802 168.987 467.419 153.999C469.268 149.055 469.233 143.569 467.323 138.651C465.413 133.732 461.769 129.748 457.129 127.503C453.695 125.871 449.888 125.265 446.139 125.755C442.39 126.244 438.848 127.809 435.913 130.273L421.008 142.877L412.899 179.602Z" fill="#6C63FF"/>
<path d="M480.162 304.543L480.332 304.31C489.388 291.881 477.002 261.1 475.129 256.636L483.55 254.055L482.082 237.463L481.375 230.064L487.922 223.63L487.944 223.466L492.447 190.305L498.339 168.358C500.559 160.061 500.606 151.302 498.474 142.98C496.343 134.658 492.11 127.073 486.21 121.003L474.166 108.629L459.737 85.2563L435.545 84.6099L426.845 100.603C418.755 102.311 411.5 106.903 406.345 113.578C401.19 120.252 398.461 128.587 398.633 137.13L399.452 179.706L390.771 232.458L390.528 242.04L382.008 251.345L383.583 260.751L377.21 263.378L374.091 276.745C372.9 278.287 365.035 288.574 364.964 291.442C364.953 291.873 365.25 292.297 365.897 292.777C370.988 296.546 399.441 304.713 412.246 299.803C425.887 294.577 479.346 304.392 479.885 304.492L480.162 304.543Z" fill="#E52727"/>
<path d="M445.528 77.4451C463.229 77.4451 477.578 62.5953 477.578 44.2772C477.578 25.9591 463.229 11.1093 445.528 11.1093C427.827 11.1093 413.477 25.9591 413.477 44.2772C413.477 62.5953 427.827 77.4451 445.528 77.4451Z" fill="#FFB8B8"/>
<path d="M441.618 77.8889C446.581 77.969 451.542 77.6102 456.446 76.8165C461.307 75.7935 472.182 67.5465 475.214 62.5839C477.466 58.8967 478.906 53.1389 479.718 48.9582C480.811 43.4259 480.77 37.7176 479.596 32.2031C478.422 26.6885 476.142 21.4905 472.903 16.9458C471.658 15.0449 469.94 13.5274 467.931 12.554C467.753 12.4819 467.569 12.418 467.384 12.3634C464.456 11.5661 461.824 9.88117 459.828 7.52504C459.441 7.04848 459.021 6.60139 458.572 6.18725C456.316 4.21678 453.641 2.82685 450.766 2.13108C446.126 0.845894 439.41 2.12161 430.807 5.92647C426.484 7.83811 421.757 7.14628 418.12 6.32992C417.916 6.28914 417.706 6.30436 417.509 6.37404C417.313 6.44372 417.137 6.56545 417 6.72711C415.453 8.23029 413.413 9.07171 411.291 9.08224C409.991 9.14131 408.627 11.0038 406.979 13.4326C406.605 13.984 406.169 14.6274 405.854 15.0188L405.811 14.2669L405.076 15.1057C403.92 16.424 403.106 18.0236 402.708 19.7555C402.311 21.4873 402.343 23.2951 402.803 25.0106C403.262 26.726 404.133 28.2932 405.335 29.5663C406.538 30.8393 408.032 31.7769 409.678 32.2916C410.986 32.6516 412.325 32.8725 413.676 32.9509C414.495 33.0271 415.341 33.1059 416.152 33.2515C418.755 33.8032 421.176 35.0441 423.178 36.8529C425.179 38.6617 426.693 40.9768 427.572 43.572C427.78 44.1719 428.118 44.7143 428.561 45.1574C429.004 45.6006 429.539 45.9325 430.125 46.1276C430.711 46.3228 431.333 46.3759 431.942 46.2829C432.551 46.1899 433.132 45.9533 433.638 45.5913C434.483 44.9104 435.475 44.4511 436.529 44.2525C437.582 44.054 438.667 44.1221 439.689 44.4511C440.573 44.9596 441.261 45.7671 441.638 46.7382C442.096 47.8201 442.854 48.7363 443.818 49.3701C447.112 51.1277 447.339 58.914 446.156 65.4048C445.015 71.6614 442.761 76.1875 440.674 76.4112C439.067 76.5832 438.883 76.7014 438.767 76.9955L438.663 77.2587L438.843 77.505C439.731 77.838 440.677 77.9689 441.618 77.8889Z" fill="black"/>
<path d="M420.858 169.574L408.5 144.078C390.562 145.346 354.961 166.808 354.961 166.808L287.603 181.588C285.608 180.794 283.446 180.558 281.334 180.904C279.223 181.25 277.237 182.165 275.576 183.558C273.915 184.951 272.638 186.772 271.873 188.838C271.109 190.904 270.883 193.142 271.22 195.327C271.557 197.511 272.444 199.565 273.792 201.283C275.14 203 276.901 204.319 278.898 205.108C280.895 205.897 283.058 206.127 285.169 205.776C287.279 205.425 289.263 204.505 290.921 203.108L376.605 196.752L420.858 169.574Z" fill="#FFB8B8"/>
<path d="M415.873 173.761L448.148 148.94L453.833 127.739C454.934 123.572 454.888 119.17 453.698 115.03C452.509 110.889 450.224 107.175 447.103 104.308C442.846 100.451 437.332 98.4103 431.677 98.5991C426.021 98.7879 420.646 101.192 416.638 105.325C404.493 117.871 390.64 135.373 393.616 147.509L393.646 147.632L415.873 173.761Z" fill="#E52727"/>
<path d="M375.921 240.15H289.563V252.066H375.921V240.15Z" fill="white"/>
<path d="M155.229 240.15H68.8716V252.066H155.229V240.15Z" fill="white"/>
</g>
<defs>
<clipPath id="clip0_20_69">
<rect width="533" height="419.11" fill="white"/>
</clipPath>
</defs>
</svg>
